<?xml version="1.0" encoding="utf-8"?>
<!-- Generator: Adobe Illustrator 24.3.0, SVG Export Plug-In . SVG Version: 6.00 Build 0)  -->
<svg version="1.1" id="Layer_1" xmlns="http://www.w3.org/2000/svg" xmlns:xlink="http://www.w3.org/1999/xlink" x="0px" y="0px"
	 viewBox="0 0 528 72" style="enable-background:new 0 0 528 72;" xml:space="preserve">
<style type="text/css">
	.st0{fill:#FFFFFF;}
	.st1{fill-rule:evenodd;clip-rule:evenodd;fill:#FFFFFF;}
	.st2{fill-rule:evenodd;clip-rule:evenodd;fill:#BF1212;}
</style>
<path class="st0" d="M112.8,22.7c-0.3,0.5-0.6,0.8-0.9,1.1c-0.3,0.2-0.7,0.3-1.2,0.3c-0.5,0-0.9-0.1-1.5-0.4c-0.5-0.3-1.1-0.6-1.8-1
	c-0.7-0.4-1.4-0.7-2.2-1c-0.8-0.3-1.8-0.4-2.9-0.4c-1.9,0-3.2,0.4-4.2,1.2c-0.9,0.8-1.4,1.9-1.4,3.2c0,0.9,0.3,1.6,0.8,2.1
	c0.6,0.6,1.3,1.1,2.2,1.5c0.9,0.4,1.9,0.8,3.1,1.1c1.1,0.3,2.3,0.7,3.5,1.1c1.2,0.4,2.4,0.9,3.5,1.5c1.2,0.6,2.2,1.3,3.1,2.2
	s1.6,2,2.2,3.2c0.5,1.3,0.8,2.8,0.8,4.6c0,2-0.3,3.8-1,5.5c-0.7,1.7-1.7,3.2-3,4.5c-1.3,1.3-2.9,2.3-4.8,3c-1.9,0.7-4.1,1.1-6.5,1.1
	c-1.3,0-2.7-0.1-4.1-0.4c-1.4-0.3-2.7-0.7-4-1.2s-2.5-1.1-3.6-1.8c-1.1-0.7-2.1-1.4-3-2.3l2.9-4.6c0.2-0.4,0.5-0.6,0.9-0.9
	c0.4-0.2,0.8-0.3,1.3-0.3c0.6,0,1.2,0.2,1.8,0.6c0.6,0.4,1.3,0.8,2,1.2s1.6,0.9,2.6,1.2c1,0.4,2.1,0.6,3.5,0.6
	c1.8,0,3.2-0.4,4.2-1.2c1-0.8,1.5-2,1.5-3.8c0-1-0.3-1.8-0.8-2.4c-0.6-0.6-1.3-1.2-2.2-1.6s-1.9-0.8-3-1.1c-1.1-0.3-2.3-0.7-3.5-1
	c-1.2-0.4-2.4-0.9-3.5-1.4c-1.1-0.6-2.1-1.3-3-2.2s-1.6-2-2.2-3.4c-0.5-1.4-0.8-3-0.8-5c0-1.6,0.3-3.2,1-4.7
	c0.7-1.5,1.6-2.9,2.9-4.1c1.2-1.2,2.8-2.1,4.6-2.9c1.8-0.7,3.9-1.1,6.2-1.1c1.3,0,2.6,0.1,3.8,0.3c1.2,0.2,2.4,0.5,3.5,0.9
	c1.1,0.4,2.2,0.9,3.1,1.4c1,0.6,1.8,1.2,2.6,1.9L112.8,22.7z"/>
<polygon class="st0" points="155.9,56.7 145.9,56.7 145.9,38.7 128.5,38.7 128.5,56.7 118.6,56.7 118.6,14 128.5,14 128.5,31.9 
	145.9,31.9 145.9,14 155.9,14 "/>
<path class="st0" d="M202.8,35.4c0,3.1-0.5,6-1.6,8.6c-1.1,2.7-2.6,5-4.5,6.9c-1.9,2-4.3,3.5-7,4.6c-2.7,1.1-5.8,1.7-9.1,1.7
	c-3.3,0-6.3-0.6-9.1-1.7c-2.7-1.1-5.1-2.7-7-4.6c-1.9-2-3.4-4.3-4.5-6.9c-1.1-2.7-1.6-5.5-1.6-8.6s0.5-6,1.6-8.6
	c1.1-2.7,2.6-5,4.5-6.9c1.9-2,4.3-3.5,7-4.6c2.7-1.1,5.8-1.7,9.1-1.7c3.3,0,6.4,0.6,9.1,1.7c2.7,1.1,5.1,2.7,7,4.6
	c1.9,2,3.4,4.3,4.5,6.9C202.3,29.4,202.8,32.3,202.8,35.4z M192.7,35.4c0-2.1-0.3-4-0.8-5.7c-0.6-1.7-1.3-3.1-2.4-4.3
	c-1-1.2-2.3-2.1-3.8-2.7c-1.5-0.6-3.2-0.9-5.1-0.9c-1.9,0-3.6,0.3-5.1,0.9c-1.5,0.6-2.8,1.5-3.8,2.7s-1.8,2.6-2.4,4.3
	c-0.6,1.7-0.8,3.6-0.8,5.7c0,2.1,0.3,4,0.8,5.7c0.6,1.7,1.3,3.1,2.4,4.3c1,1.2,2.3,2.1,3.8,2.7c1.5,0.6,3.2,0.9,5.1,0.9
	c1.9,0,3.6-0.3,5.1-0.9c1.5-0.6,2.7-1.5,3.8-2.7c1-1.2,1.8-2.6,2.4-4.3C192.4,39.4,192.7,37.5,192.7,35.4z"/>
<path class="st0" d="M236.1,45.7c0.2,0,0.5,0,0.7,0.1c0.2,0.1,0.5,0.2,0.7,0.5l3.9,4.2c-1.7,2.2-3.9,3.9-6.5,5
	c-2.6,1.1-5.7,1.7-9.2,1.7c-3.2,0-6.2-0.6-8.7-1.7c-2.6-1.1-4.8-2.6-6.5-4.6c-1.8-1.9-3.2-4.3-4.1-6.9c-1-2.7-1.4-5.6-1.4-8.7
	c0-3.2,0.6-6.1,1.6-8.8c1.1-2.7,2.6-5,4.6-6.9c2-1.9,4.3-3.4,7.1-4.5c2.7-1.1,5.8-1.6,9.1-1.6c1.6,0,3.1,0.1,4.5,0.4
	c1.4,0.3,2.7,0.7,4,1.2c1.2,0.5,2.4,1.1,3.4,1.8c1,0.7,2,1.5,2.8,2.3l-3.3,4.5c-0.2,0.3-0.5,0.5-0.8,0.8c-0.3,0.2-0.7,0.3-1.2,0.3
	c-0.4,0-0.7-0.1-1-0.2c-0.3-0.1-0.6-0.3-1-0.6c-0.3-0.2-0.7-0.5-1.2-0.7c-0.4-0.3-0.9-0.5-1.5-0.7c-0.6-0.2-1.2-0.4-2-0.6
	c-0.8-0.1-1.7-0.2-2.7-0.2c-1.8,0-3.4,0.3-4.9,0.9c-1.5,0.6-2.8,1.6-3.8,2.7c-1.1,1.2-1.9,2.6-2.5,4.3c-0.6,1.7-0.9,3.6-0.9,5.7
	c0,2.2,0.3,4.1,0.9,5.8c0.6,1.7,1.4,3.1,2.4,4.3c1,1.2,2.2,2,3.6,2.7c1.4,0.6,2.8,0.9,4.4,0.9c0.9,0,1.7,0,2.5-0.1
	c0.8-0.1,1.4-0.2,2.1-0.5c0.6-0.2,1.2-0.5,1.8-0.8c0.6-0.3,1.2-0.8,1.7-1.3c0.2-0.2,0.5-0.3,0.8-0.5
	C235.5,45.7,235.8,45.7,236.1,45.7z"/>
<path class="st0" d="M254.6,31.3h1.6c1.5,0,2.5-0.5,3.2-1.4l9.6-14c0.5-0.8,1.1-1.3,1.8-1.6c0.7-0.3,1.5-0.4,2.5-0.4h8.6l-12.7,17.3
	c-0.4,0.6-0.9,1.1-1.4,1.6c-0.5,0.4-1,0.8-1.5,1c0.7,0.3,1.4,0.7,2,1.1c0.6,0.5,1.2,1.1,1.7,1.9L283,56.7h-8.9c-0.6,0-1,0-1.4-0.1
	c-0.4-0.1-0.8-0.2-1-0.4c-0.3-0.2-0.5-0.3-0.8-0.6c-0.2-0.2-0.4-0.5-0.6-0.8L260.6,40c-0.4-0.6-0.8-0.9-1.3-1.2
	c-0.5-0.2-1.3-0.3-2.2-0.3h-2.4v18.2h-9.9V14h9.9V31.3z"/>
<polygon class="st0" points="328.1,56.7 322.4,56.7 322.4,37.6 299.8,37.6 299.8,56.7 294.1,56.7 294.1,14.7 299.8,14.7 299.8,33.4 
	322.4,33.4 322.4,14.7 328.1,14.7 "/>
<path class="st0" d="M373.3,35.7c0,3.1-0.5,6-1.5,8.7c-1,2.6-2.4,4.9-4.2,6.8c-1.8,1.9-4,3.4-6.5,4.4c-2.6,1-5.4,1.6-8.5,1.6
	c-3.1,0-5.9-0.5-8.4-1.6c-2.5-1-4.7-2.5-6.5-4.4c-1.8-1.9-3.2-4.2-4.2-6.8c-1-2.6-1.5-5.5-1.5-8.7c0-3.2,0.5-6,1.5-8.7
	c1-2.6,2.4-4.9,4.2-6.8c1.8-1.9,4-3.4,6.5-4.4c2.5-1.1,5.3-1.6,8.4-1.6c3.1,0,5.9,0.5,8.5,1.6c2.5,1.1,4.7,2.5,6.5,4.4
	c1.8,1.9,3.2,4.2,4.2,6.8C372.8,29.7,373.3,32.6,373.3,35.7z M367.4,35.7c0-2.6-0.4-4.9-1.1-7c-0.7-2.1-1.7-3.8-3-5.2
	c-1.3-1.4-2.8-2.5-4.7-3.3c-1.8-0.8-3.9-1.1-6.2-1.1c-2.2,0-4.3,0.4-6.1,1.1c-1.8,0.8-3.4,1.9-4.7,3.3s-2.3,3.1-3,5.2
	c-0.7,2.1-1,4.4-1,7c0,2.6,0.4,4.9,1,6.9c0.7,2,1.7,3.8,3,5.2c1.3,1.4,2.9,2.5,4.7,3.2c1.8,0.8,3.9,1.1,6.1,1.1
	c2.3,0,4.3-0.4,6.2-1.1c1.8-0.8,3.4-1.8,4.7-3.2c1.3-1.4,2.3-3.2,3-5.2C367.1,40.6,367.4,38.3,367.4,35.7z"/>
<path class="st0" d="M399.4,21.3c-0.2,0.3-0.4,0.5-0.6,0.7c-0.2,0.2-0.5,0.2-0.8,0.2c-0.3,0-0.7-0.2-1.2-0.5s-1-0.7-1.7-1.1
	c-0.7-0.4-1.5-0.8-2.4-1.1c-1-0.3-2.1-0.5-3.4-0.5c-1.3,0-2.4,0.2-3.4,0.5c-1,0.3-1.8,0.8-2.5,1.4c-0.7,0.6-1.1,1.3-1.5,2.1
	c-0.3,0.8-0.5,1.7-0.5,2.6c0,1.2,0.3,2.1,0.9,2.9c0.6,0.8,1.3,1.4,2.3,2c0.9,0.5,2,1,3.2,1.4c1.2,0.4,2.4,0.8,3.7,1.2
	c1.3,0.4,2.5,0.9,3.7,1.5c1.2,0.5,2.3,1.2,3.2,2c0.9,0.8,1.7,1.8,2.3,3c0.6,1.2,0.9,2.7,0.9,4.4c0,1.8-0.3,3.6-0.9,5.2
	c-0.6,1.6-1.5,3-2.7,4.2c-1.2,1.2-2.7,2.1-4.4,2.8c-1.8,0.7-3.7,1-6,1c-2.7,0-5.2-0.5-7.4-1.5c-2.2-1-4.1-2.3-5.7-4l1.6-2.7
	c0.2-0.2,0.4-0.4,0.6-0.5c0.2-0.1,0.5-0.2,0.7-0.2c0.4,0,0.9,0.2,1.4,0.7c0.5,0.4,1.2,0.9,2,1.5c0.8,0.5,1.8,1,2.9,1.4
	c1.1,0.4,2.5,0.7,4.1,0.7c1.4,0,2.5-0.2,3.6-0.5c1.1-0.4,2-0.9,2.7-1.6c0.7-0.7,1.3-1.5,1.7-2.4c0.4-0.9,0.6-2,0.6-3.1
	c0-1.3-0.3-2.3-0.9-3.1c-0.6-0.8-1.3-1.5-2.3-2c-0.9-0.5-2-1-3.2-1.4c-1.2-0.4-2.4-0.8-3.7-1.2c-1.3-0.4-2.5-0.9-3.7-1.4
	c-1.2-0.5-2.3-1.2-3.2-2c-0.9-0.8-1.7-1.9-2.3-3.2c-0.6-1.3-0.9-2.8-0.9-4.7c0-1.5,0.3-2.9,0.9-4.3c0.6-1.4,1.4-2.6,2.5-3.7
	c1.1-1.1,2.4-1.9,4.1-2.6c1.6-0.6,3.5-1,5.6-1c2.4,0,4.5,0.4,6.4,1.1c1.9,0.7,3.6,1.8,5.1,3.2L399.4,21.3z"/>
<polygon class="st0" points="436.4,14.7 436.4,19.5 422.8,19.5 422.8,56.7 417.1,56.7 417.1,19.5 403.5,19.5 403.5,14.7 "/>
<rect x="441.3" y="14.7" class="st0" width="5.7" height="42"/>
<path class="st0" d="M456,14.7c0.5,0,0.9,0.1,1.1,0.2c0.2,0.1,0.5,0.4,0.8,0.8l24.3,31.7c-0.1-0.5-0.1-1-0.1-1.5s0-0.9,0-1.4V14.7h5
	v42h-2.9c-0.4,0-0.8-0.1-1.1-0.2c-0.3-0.2-0.6-0.4-0.9-0.8l-24.3-31.6c0,0.5,0.1,1,0.1,1.4c0,0.5,0,0.9,0,1.3v29.9h-5v-42H456z"/>
<path class="st0" d="M512,52.6c1.1,0,2.2-0.1,3.1-0.2c1-0.1,1.8-0.3,2.7-0.5c0.8-0.2,1.6-0.5,2.4-0.8s1.5-0.6,2.2-1v-9.3h-6.5
	c-0.4,0-0.7-0.1-0.9-0.3c-0.2-0.2-0.3-0.5-0.3-0.8v-3.2h12.9v16.1c-1.1,0.8-2.2,1.4-3.3,2c-1.1,0.6-2.4,1-3.7,1.4s-2.7,0.7-4.2,0.8
	c-1.5,0.2-3.1,0.3-4.8,0.3c-3.1,0-5.9-0.5-8.4-1.6c-2.5-1-4.7-2.5-6.6-4.4c-1.8-1.9-3.3-4.2-4.3-6.8c-1-2.6-1.5-5.5-1.5-8.7
	c0-3.2,0.5-6.1,1.5-8.8s2.4-4.9,4.3-6.8c1.9-1.9,4.1-3.3,6.8-4.4c2.6-1,5.6-1.5,8.9-1.5c1.7,0,3.2,0.1,4.6,0.4c1.4,0.2,2.8,0.6,4,1
	c1.2,0.5,2.4,1,3.4,1.7c1,0.7,2,1.4,2.9,2.2l-1.6,2.6c-0.3,0.5-0.8,0.8-1.3,0.8c-0.3,0-0.6-0.1-1-0.3c-0.5-0.3-1-0.6-1.6-1
	c-0.6-0.4-1.3-0.8-2.2-1.1c-0.9-0.4-1.9-0.7-3.1-0.9c-1.2-0.3-2.6-0.4-4.2-0.4c-2.4,0-4.5,0.4-6.4,1.2c-1.9,0.8-3.5,1.9-4.9,3.3
	c-1.4,1.4-2.4,3.2-3.1,5.2c-0.7,2-1.1,4.3-1.1,6.9c0,2.7,0.4,5,1.1,7.1c0.8,2.1,1.8,3.8,3.2,5.3c1.4,1.5,3,2.6,4.9,3.3
	C507.6,52.2,509.7,52.6,512,52.6z"/>
<path class="st1" d="M7.4,7.7c5.9-6,16.8-7,28.5-7.1c11.6,0.1,22.6,1.2,28.5,7.1c6,5.9,7,16.8,7.1,28.5c-0.1,11.6-1.2,22.6-7.1,28.5
	c-5.9,5.9-16.8,7-28.5,7.1c-11.6-0.1-22.6-1.2-28.5-7.1c-6-5.9-7-16.8-7.1-28.5C0.4,24.5,1.4,13.5,7.4,7.7L7.4,7.7z"/>
<path class="st2" d="M7.4,64.6c-5.2-5.2-6.7-14.3-7-24.4h14.9l3.1-7.4H0.4c0-1.1,0.1-2.3,0.1-3.4h19.4L23,22H1.2
	c0.2-1.1,0.4-2.3,0.6-3.4h22.5l3.2-7.4H4.7c0.8-1.3,1.7-2.5,2.7-3.6c5.9-6,16.8-7,28.5-7.1c11.6,0.1,22.6,1.2,28.5,7.1
	c4.9,4.8,6.5,13.1,6.9,22.3H58.2L55,37.4h16.4c0,1.1-0.1,2.2-0.1,3.4H53.6l-3.1,7.4h20.3c-0.1,1.2-0.3,2.3-0.5,3.4H49L45.9,59h22.2
	c-0.9,2.2-2.2,4.1-3.8,5.6c-5.9,6-16.8,7-28.5,7.1C24.2,71.6,13.3,70.6,7.4,64.6z M37.6,63.1l16.3-37.6c0.7-1.6-1.5-3.1-3.3-2.3
	l-16.7,7.9L39,9.6c0.5-2.2-3.5-3.2-4.4-1L19.4,45c-0.7,1.7,1.6,3.1,3.4,2.2l16-8.2L33.3,62C32.8,64.3,36.7,65.2,37.6,63.1z"/>
</svg>
