<svg version="1" xmlns="http://www.w3.org/2000/svg" width="396" height="396" viewBox="0 0 297.000000 297.000000"><path d="M110 1.1C76.1 4 49.8 12.3 34.4 24.9 28.9 29.3 18 42.2 18 44.2c0 .5 21.4.8 47.6.8 26.2 0 47.4.4 47.2.8-.1.5-3 7.2-6.3 15l-6 14.2H6.3l-1.2 5.7C3 91.1-2.2 90 49.1 90c24.8 0 44.9.4 44.7.8-.1.5-3 7.2-6.3 15L81.6 120l-40.6.2-40.5.3-.3 7.2-.3 7.3h37.6c20.7 0 37.5.4 37.3.8-.2.5-3 7.2-6.2 15l-6 14.2H-.3l.7 11.2c3.8 62.7 19.1 93.2 54.4 107.8 20.4 8.5 43.4 12 84.2 12.7 70.9 1.3 107.7-7.6 129.8-31.2 7.5-8 15.3-21.2 13-22-.7-.3-21.4-.6-46-.7l-44.6-.3 6.1-14.7 6.2-14.8H292l.5-2.2c.3-1.3.6-4.6.8-7.3l.2-5-41.7-.5-41.7-.5 6.2-14.7 6.2-14.8H297v-15l-33.9-.2-34-.3 6.2-14.7 6.2-14.8H296v-4.3c0-6.1-1.8-21.7-3.6-32.7-6.6-39-23.1-62.3-52.5-73.9-11.9-4.7-21.9-7-41.4-9.7C185.3.5 126.1-.3 110 1.1zm48.5 30.4c1.4 1.3 2.5 3 2.5 3.8 0 .8-4.7 21.6-10.5 46.2-5.8 24.7-10.4 45.2-10.3 45.5.2.4 16.3-6.8 35.8-16.1 23.2-11 36.6-16.8 38.8-16.9 4.5 0 9.7 4.9 8.6 8.2-1.8 5.9-68.6 159.3-70 161-4.1 4.5-15.5.8-15.4-5 .1-1.5 5.2-24.1 11.4-50.2s11.2-47.7 11-47.9c-.2-.2-15.6 7.6-34.4 17.3-24.6 12.7-35 17.6-37.5 17.6-3.9 0-8.5-3.4-8.7-6.6-.3-2.8 63-154.3 65.5-157.2 2.9-3.2 9.9-3.1 13.2.3z"/></svg>